<svg xmlns="http://www.w3.org/2000/svg" viewBox="0 0 32 32" width="32" height="32">
  <defs>
    <linearGradient id="spiralGradDark" x1="0" y1="0" x2="1" y2="1">
      <stop offset="0%" stop-color="#c084fc"/>
      <stop offset="100%" stop-color="#67e8f9"/>
    </linearGradient>
  </defs>
  <rect width="32" height="32" rx="6" fill="#1e1e2e"/>
  <!-- Spiral -->
  <path d="M16 10 C12.5 10, 10 12.5, 10 16 C10 19.5, 12.5 22, 16 22 C19 22, 21 20, 21 17.5 C21 15.5, 19.5 14, 17.5 14 C15.8 14, 14.5 15.2, 14.5 16.5 C14.5 17.6, 15.3 18.2, 16 18.2" fill="none" stroke="url(#spiralGradDark)" stroke-width="2" stroke-linecap="round"/>
  <!-- Pipeline arrow -->
  <path d="M22 16 L26 16" stroke="#67e8f9" stroke-width="1.5" stroke-linecap="round"/>
  <path d="M24.5 14 L27 16 L24.5 18" fill="none" stroke="#67e8f9" stroke-width="1.5" stroke-linecap="round" stroke-linejoin="round"/>
  <!-- Accent dot -->
  <circle cx="7" cy="16" r="1.5" fill="#c084fc" opacity="0.7"/>
</svg>
