<svg xmlns="http://www.w3.org/2000/svg" viewBox="0 0 32 32" width="32" height="32">
  <rect width="32" height="32" rx="6" fill="#1e1e2e"/>
  <!-- Gear outer -->
  <path d="M16 8 L17.5 10.5 L20.5 10 L20 13 L23 14 L21 16 L23 18 L20 19 L20.5 22 L17.5 21.5 L16 24 L14.5 21.5 L11.5 22 L12 19 L9 18 L11 16 L9 14 L12 13 L11.5 10 L14.5 10.5 Z" fill="none" stroke="#67e8f9" stroke-width="1.3" stroke-linejoin="round"/>
  <!-- Gear inner circle -->
  <circle cx="16" cy="16" r="3.5" fill="none" stroke="#c084fc" stroke-width="1.3"/>
  <!-- Mini spiral inside gear -->
  <path d="M16 14.2 C15 14.2, 14.2 15, 14.2 16 C14.2 17, 15 17.8, 16 17.8 C16.8 17.8, 17.3 17.2, 17.3 16.5 C17.3 16, 16.8 15.6, 16.3 15.6" fill="none" stroke="#c084fc" stroke-width="1" stroke-linecap="round"/>
</svg>
