<svg xmlns="http://www.w3.org/2000/svg" viewBox="0 0 32 32" width="32" height="32">
  <rect width="32" height="32" rx="6" fill="#1e1e2e"/>
  <!-- Document page -->
  <path d="M10 6 L20 6 L24 10 L24 26 L10 26 Z" fill="none" stroke="#a6e3a1" stroke-width="1.3" stroke-linejoin="round"/>
  <path d="M20 6 L20 10 L24 10" fill="none" stroke="#a6e3a1" stroke-width="1.3" stroke-linejoin="round"/>
  <!-- Markup angle brackets -->
  <path d="M13 15 L10.5 17.5 L13 20" fill="none" stroke="#a6e3a1" stroke-width="1.5" stroke-linecap="round" stroke-linejoin="round"/>
  <path d="M21 15 L23.5 17.5 L21 20" fill="none" stroke="#a6e3a1" stroke-width="1.5" stroke-linecap="round" stroke-linejoin="round"/>
  <!-- Mini spiral between brackets -->
  <path d="M17 15.5 C15.8 15.5, 15 16.3, 15 17.5 C15 18.7, 15.8 19.5, 17 19.5 C17.9 19.5, 18.5 18.9, 18.5 18.2 C18.5 17.6, 18 17.2, 17.4 17.2 C17 17.2, 16.8 17.5, 16.8 17.7" fill="none" stroke="#c084fc" stroke-width="1" stroke-linecap="round"/>
  <!-- Text lines -->
  <line x1="12" y1="23" x2="18" y2="23" stroke="#a6e3a1" stroke-width="0.8" opacity="0.5" stroke-linecap="round"/>
  <line x1="12" y1="12" x2="17" y2="12" stroke="#a6e3a1" stroke-width="0.8" opacity="0.5" stroke-linecap="round"/>
</svg>
