<svg xmlns="http://www.w3.org/2000/svg" viewBox="0 0 32 32" width="32" height="32">
  <rect width="32" height="32" rx="6" fill="#1e1e2e"/>
  <!-- Chip body -->
  <rect x="9" y="9" width="14" height="14" rx="2" fill="none" stroke="#67e8f9" stroke-width="1.5"/>
  <!-- Chip pins - top -->
  <line x1="13" y1="6" x2="13" y2="9" stroke="#67e8f9" stroke-width="1.2" stroke-linecap="round"/>
  <line x1="16" y1="6" x2="16" y2="9" stroke="#67e8f9" stroke-width="1.2" stroke-linecap="round"/>
  <line x1="19" y1="6" x2="19" y2="9" stroke="#67e8f9" stroke-width="1.2" stroke-linecap="round"/>
  <!-- Chip pins - bottom -->
  <line x1="13" y1="23" x2="13" y2="26" stroke="#67e8f9" stroke-width="1.2" stroke-linecap="round"/>
  <line x1="16" y1="23" x2="16" y2="26" stroke="#67e8f9" stroke-width="1.2" stroke-linecap="round"/>
  <line x1="19" y1="23" x2="19" y2="26" stroke="#67e8f9" stroke-width="1.2" stroke-linecap="round"/>
  <!-- Chip pins - left -->
  <line x1="6" y1="13" x2="9" y2="13" stroke="#67e8f9" stroke-width="1.2" stroke-linecap="round"/>
  <line x1="6" y1="16" x2="9" y2="16" stroke="#67e8f9" stroke-width="1.2" stroke-linecap="round"/>
  <line x1="6" y1="19" x2="9" y2="19" stroke="#67e8f9" stroke-width="1.2" stroke-linecap="round"/>
  <!-- Chip pins - right -->
  <line x1="23" y1="13" x2="26" y2="13" stroke="#67e8f9" stroke-width="1.2" stroke-linecap="round"/>
  <line x1="23" y1="16" x2="26" y2="16" stroke="#67e8f9" stroke-width="1.2" stroke-linecap="round"/>
  <line x1="23" y1="19" x2="26" y2="19" stroke="#67e8f9" stroke-width="1.2" stroke-linecap="round"/>
  <!-- Mini spiral inside chip -->
  <path d="M16 13.5 C14.5 13.5, 13.5 14.5, 13.5 16 C13.5 17.5, 14.5 18.5, 16 18.5 C17.2 18.5, 18 17.7, 18 16.8 C18 16, 17.3 15.5, 16.5 15.5 C16 15.5, 15.7 15.9, 15.7 16.2" fill="none" stroke="#c084fc" stroke-width="1.2" stroke-linecap="round"/>
</svg>
